<svg xmlns="http://www.w3.org/2000/svg" width="720" height="133" viewBox="0 0 720 133">
    <style>text { dominant-baseline: central; }</style>
    <rect width="100%" height="100%" rx="6" fill="#0d1117"/>
    <text x="28" y="12" fill="#8b949e" font-size="10" font-family="Segoe UI,Helvetica,Arial,sans-serif">Jun</text><text x="80" y="12" fill="#8b949e" font-size="10" font-family="Segoe UI,Helvetica,Arial,sans-serif">Jul</text><text x="132" y="12" fill="#8b949e" font-size="10" font-family="Segoe UI,Helvetica,Arial,sans-serif">Aug</text><text x="197" y="12" fill="#8b949e" font-size="10" font-family="Segoe UI,Helvetica,Arial,sans-serif">Sep</text><text x="249" y="12" fill="#8b949e" font-size="10" font-family="Segoe UI,Helvetica,Arial,sans-serif">Oct</text><text x="301" y="12" fill="#8b949e" font-size="10" font-family="Segoe UI,Helvetica,Arial,sans-serif">Nov</text><text x="366" y="12" fill="#8b949e" font-size="10" font-family="Segoe UI,Helvetica,Arial,sans-serif">Dec</text><text x="418" y="12" fill="#8b949e" font-size="10" font-family="Segoe UI,Helvetica,Arial,sans-serif">Jan</text><text x="470" y="12" fill="#8b949e" font-size="10" font-family="Segoe UI,Helvetica,Arial,sans-serif">Feb</text><text x="522" y="12" fill="#8b949e" font-size="10" font-family="Segoe UI,Helvetica,Arial,sans-serif">Mar</text><text x="587" y="12" fill="#8b949e" font-size="10" font-family="Segoe UI,Helvetica,Arial,sans-serif">Apr</text><text x="639" y="12" fill="#8b949e" font-size="10" font-family="Segoe UI,Helvetica,Arial,sans-serif">May</text>
    <text x="22" y="41" text-anchor="end" fill="#8b949e" font-size="9" font-family="Segoe UI,Helvetica,Arial,sans-serif">Mon</text><text x="22" y="67" text-anchor="end" fill="#8b949e" font-size="9" font-family="Segoe UI,Helvetica,Arial,sans-serif">Wed</text><text x="22" y="93" text-anchor="end" fill="#8b949e" font-size="9" font-family="Segoe UI,Helvetica,Arial,sans-serif">Fri</text>
    <rect x="28" y="18" width="11" height="11" rx="2" fill="#161b22"><title>2025-06-08: 0 commits</title></rect><rect x="28" y="31" width="11" height="11" rx="2" fill="#161b22"><title>2025-06-09: 0 commits</title></rect><rect x="28" y="44" width="11" height="11" rx="2" fill="#161b22"><title>2025-06-10: 0 commits</title></rect><rect x="28" y="57" width="11" height="11" rx="2" fill="#0e4429"><title>2025-06-11: 4 commits</title></rect><rect x="28" y="70" width="11" height="11" rx="2" fill="#0e4429"><title>2025-06-12: 1 commit</title></rect><rect x="28" y="83" width="11" height="11" rx="2" fill="#0e4429"><title>2025-06-13: 1 commit</title></rect><rect x="28" y="96" width="11" height="11" rx="2" fill="#161b22"><title>2025-06-14: 0 commits</title></rect><rect x="41" y="18" width="11" height="11" rx="2" fill="#161b22"><title>2025-06-15: 0 commits</title></rect><rect x="41" y="31" width="11" height="11" rx="2" fill="#161b22"><title>2025-06-16: 0 commits</title></rect><rect x="41" y="44" width="11" height="11" rx="2" fill="#161b22"><title>2025-06-17: 0 commits</title></rect><rect x="41" y="57" width="11" height="11" rx="2" fill="#161b22"><title>2025-06-18: 0 commits</title></rect><rect x="41" y="70" width="11" height="11" rx="2" fill="#161b22"><title>2025-06-19: 0 commits</title></rect><rect x="41" y="83" width="11" height="11" rx="2" fill="#0e4429"><title>2025-06-20: 1 commit</title></rect><rect x="41" y="96" width="11" height="11" rx="2" fill="#161b22"><title>2025-06-21: 0 commits</title></rect><rect x="54" y="18" width="11" height="11" rx="2" fill="#161b22"><title>2025-06-22: 0 commits</title></rect><rect x="54" y="31" width="11" height="11" rx="2" fill="#161b22"><title>2025-06-23: 0 commits</title></rect><rect x="54" y="44" width="11" height="11" rx="2" fill="#0e4429"><title>2025-06-24: 4 commits</title></rect><rect x="54" y="57" width="11" height="11" rx="2" fill="#0e4429"><title>2025-06-25: 1 commit</title></rect><rect x="54" y="70" width="11" height="11" rx="2" fill="#0e4429"><title>2025-06-26: 1 commit</title></rect><rect x="54" y="83" width="11" height="11" rx="2" fill="#161b22"><title>2025-06-27: 0 commits</title></rect><rect x="54" y="96" width="11" height="11" rx="2" fill="#161b22"><title>2025-06-28: 0 commits</title></rect><rect x="67" y="18" width="11" height="11" rx="2" fill="#161b22"><title>2025-06-29: 0 commits</title></rect><rect x="67" y="31" width="11" height="11" rx="2" fill="#0e4429"><title>2025-06-30: 4 commits</title></rect><rect x="67" y="44" width="11" height="11" rx="2" fill="#0e4429"><title>2025-07-01: 2 commits</title></rect><rect x="67" y="57" width="11" height="11" rx="2" fill="#0e4429"><title>2025-07-02: 3 commits</title></rect><rect x="67" y="70" width="11" height="11" rx="2" fill="#0e4429"><title>2025-07-03: 3 commits</title></rect><rect x="67" y="83" width="11" height="11" rx="2" fill="#0e4429"><title>2025-07-04: 1 commit</title></rect><rect x="67" y="96" width="11" height="11" rx="2" fill="#161b22"><title>2025-07-05: 0 commits</title></rect><rect x="80" y="18" width="11" height="11" rx="2" fill="#161b22"><title>2025-07-06: 0 commits</title></rect><rect x="80" y="31" width="11" height="11" rx="2" fill="#161b22"><title>2025-07-07: 0 commits</title></rect><rect x="80" y="44" width="11" height="11" rx="2" fill="#0e4429"><title>2025-07-08: 2 commits</title></rect><rect x="80" y="57" width="11" height="11" rx="2" fill="#0e4429"><title>2025-07-09: 3 commits</title></rect><rect x="80" y="70" width="11" height="11" rx="2" fill="#161b22"><title>2025-07-10: 0 commits</title></rect><rect x="80" y="83" width="11" height="11" rx="2" fill="#0e4429"><title>2025-07-11: 1 commit</title></rect><rect x="80" y="96" width="11" height="11" rx="2" fill="#161b22"><title>2025-07-12: 0 commits</title></rect><rect x="93" y="18" width="11" height="11" rx="2" fill="#161b22"><title>2025-07-13: 0 commits</title></rect><rect x="93" y="31" width="11" height="11" rx="2" fill="#0e4429"><title>2025-07-14: 1 commit</title></rect><rect x="93" y="44" width="11" height="11" rx="2" fill="#0e4429"><title>2025-07-15: 2 commits</title></rect><rect x="93" y="57" width="11" height="11" rx="2" fill="#0e4429"><title>2025-07-16: 3 commits</title></rect><rect x="93" y="70" width="11" height="11" rx="2" fill="#161b22"><title>2025-07-17: 0 commits</title></rect><rect x="93" y="83" width="11" height="11" rx="2" fill="#161b22"><title>2025-07-18: 0 commits</title></rect><rect x="93" y="96" width="11" height="11" rx="2" fill="#161b22"><title>2025-07-19: 0 commits</title></rect><rect x="106" y="18" width="11" height="11" rx="2" fill="#161b22"><title>2025-07-20: 0 commits</title></rect><rect x="106" y="31" width="11" height="11" rx="2" fill="#0e4429"><title>2025-07-21: 1 commit</title></rect><rect x="106" y="44" width="11" height="11" rx="2" fill="#0e4429"><title>2025-07-22: 1 commit</title></rect><rect x="106" y="57" width="11" height="11" rx="2" fill="#0e4429"><title>2025-07-23: 1 commit</title></rect><rect x="106" y="70" width="11" height="11" rx="2" fill="#0e4429"><title>2025-07-24: 3 commits</title></rect><rect x="106" y="83" width="11" height="11" rx="2" fill="#0e4429"><title>2025-07-25: 1 commit</title></rect><rect x="106" y="96" width="11" height="11" rx="2" fill="#161b22"><title>2025-07-26: 0 commits</title></rect><rect x="119" y="18" width="11" height="11" rx="2" fill="#161b22"><title>2025-07-27: 0 commits</title></rect><rect x="119" y="31" width="11" height="11" rx="2" fill="#161b22"><title>2025-07-28: 0 commits</title></rect><rect x="119" y="44" width="11" height="11" rx="2" fill="#0e4429"><title>2025-07-29: 2 commits</title></rect><rect x="119" y="57" width="11" height="11" rx="2" fill="#161b22"><title>2025-07-30: 0 commits</title></rect><rect x="119" y="70" width="11" height="11" rx="2" fill="#161b22"><title>2025-07-31: 0 commits</title></rect><rect x="119" y="83" width="11" height="11" rx="2" fill="#161b22"><title>2025-08-01: 0 commits</title></rect><rect x="119" y="96" width="11" height="11" rx="2" fill="#161b22"><title>2025-08-02: 0 commits</title></rect><rect x="132" y="18" width="11" height="11" rx="2" fill="#161b22"><title>2025-08-03: 0 commits</title></rect><rect x="132" y="31" width="11" height="11" rx="2" fill="#161b22"><title>2025-08-04: 0 commits</title></rect><rect x="132" y="44" width="11" height="11" rx="2" fill="#161b22"><title>2025-08-05: 0 commits</title></rect><rect x="132" y="57" width="11" height="11" rx="2" fill="#161b22"><title>2025-08-06: 0 commits</title></rect><rect x="132" y="70" width="11" height="11" rx="2" fill="#0e4429"><title>2025-08-07: 1 commit</title></rect><rect x="132" y="83" width="11" height="11" rx="2" fill="#0e4429"><title>2025-08-08: 2 commits</title></rect><rect x="132" y="96" width="11" height="11" rx="2" fill="#161b22"><title>2025-08-09: 0 commits</title></rect><rect x="145" y="18" width="11" height="11" rx="2" fill="#161b22"><title>2025-08-10: 0 commits</title></rect><rect x="145" y="31" width="11" height="11" rx="2" fill="#161b22"><title>2025-08-11: 0 commits</title></rect><rect x="145" y="44" width="11" height="11" rx="2" fill="#161b22"><title>2025-08-12: 0 commits</title></rect><rect x="145" y="57" width="11" height="11" rx="2" fill="#161b22"><title>2025-08-13: 0 commits</title></rect><rect x="145" y="70" width="11" height="11" rx="2" fill="#161b22"><title>2025-08-14: 0 commits</title></rect><rect x="145" y="83" width="11" height="11" rx="2" fill="#161b22"><title>2025-08-15: 0 commits</title></rect><rect x="145" y="96" width="11" height="11" rx="2" fill="#161b22"><title>2025-08-16: 0 commits</title></rect><rect x="158" y="18" width="11" height="11" rx="2" fill="#161b22"><title>2025-08-17: 0 commits</title></rect><rect x="158" y="31" width="11" height="11" rx="2" fill="#161b22"><title>2025-08-18: 0 commits</title></rect><rect x="158" y="44" width="11" height="11" rx="2" fill="#161b22"><title>2025-08-19: 0 commits</title></rect><rect x="158" y="57" width="11" height="11" rx="2" fill="#161b22"><title>2025-08-20: 0 commits</title></rect><rect x="158" y="70" width="11" height="11" rx="2" fill="#0e4429"><title>2025-08-21: 2 commits</title></rect><rect x="158" y="83" width="11" height="11" rx="2" fill="#161b22"><title>2025-08-22: 0 commits</title></rect><rect x="158" y="96" width="11" height="11" rx="2" fill="#161b22"><title>2025-08-23: 0 commits</title></rect><rect x="171" y="18" width="11" height="11" rx="2" fill="#161b22"><title>2025-08-24: 0 commits</title></rect><rect x="171" y="31" width="11" height="11" rx="2" fill="#161b22"><title>2025-08-25: 0 commits</title></rect><rect x="171" y="44" width="11" height="11" rx="2" fill="#161b22"><title>2025-08-26: 0 commits</title></rect><rect x="171" y="57" width="11" height="11" rx="2" fill="#161b22"><title>2025-08-27: 0 commits</title></rect><rect x="171" y="70" width="11" height="11" rx="2" fill="#161b22"><title>2025-08-28: 0 commits</title></rect><rect x="171" y="83" width="11" height="11" rx="2" fill="#161b22"><title>2025-08-29: 0 commits</title></rect><rect x="171" y="96" width="11" height="11" rx="2" fill="#161b22"><title>2025-08-30: 0 commits</title></rect><rect x="184" y="18" width="11" height="11" rx="2" fill="#161b22"><title>2025-08-31: 0 commits</title></rect><rect x="184" y="31" width="11" height="11" rx="2" fill="#161b22"><title>2025-09-01: 0 commits</title></rect><rect x="184" y="44" width="11" height="11" rx="2" fill="#161b22"><title>2025-09-02: 0 commits</title></rect><rect x="184" y="57" width="11" height="11" rx="2" fill="#161b22"><title>2025-09-03: 0 commits</title></rect><rect x="184" y="70" width="11" height="11" rx="2" fill="#161b22"><title>2025-09-04: 0 commits</title></rect><rect x="184" y="83" width="11" height="11" rx="2" fill="#161b22"><title>2025-09-05: 0 commits</title></rect><rect x="184" y="96" width="11" height="11" rx="2" fill="#161b22"><title>2025-09-06: 0 commits</title></rect><rect x="197" y="18" width="11" height="11" rx="2" fill="#161b22"><title>2025-09-07: 0 commits</title></rect><rect x="197" y="31" width="11" height="11" rx="2" fill="#161b22"><title>2025-09-08: 0 commits</title></rect><rect x="197" y="44" width="11" height="11" rx="2" fill="#161b22"><title>2025-09-09: 0 commits</title></rect><rect x="197" y="57" width="11" height="11" rx="2" fill="#0e4429"><title>2025-09-10: 3 commits</title></rect><rect x="197" y="70" width="11" height="11" rx="2" fill="#0e4429"><title>2025-09-11: 2 commits</title></rect><rect x="197" y="83" width="11" height="11" rx="2" fill="#161b22"><title>2025-09-12: 0 commits</title></rect><rect x="197" y="96" width="11" height="11" rx="2" fill="#161b22"><title>2025-09-13: 0 commits</title></rect><rect x="210" y="18" width="11" height="11" rx="2" fill="#161b22"><title>2025-09-14: 0 commits</title></rect><rect x="210" y="31" width="11" height="11" rx="2" fill="#161b22"><title>2025-09-15: 0 commits</title></rect><rect x="210" y="44" width="11" height="11" rx="2" fill="#161b22"><title>2025-09-16: 0 commits</title></rect><rect x="210" y="57" width="11" height="11" rx="2" fill="#161b22"><title>2025-09-17: 0 commits</title></rect><rect x="210" y="70" width="11" height="11" rx="2" fill="#161b22"><title>2025-09-18: 0 commits</title></rect><rect x="210" y="83" width="11" height="11" rx="2" fill="#161b22"><title>2025-09-19: 0 commits</title></rect><rect x="210" y="96" width="11" height="11" rx="2" fill="#161b22"><title>2025-09-20: 0 commits</title></rect><rect x="223" y="18" width="11" height="11" rx="2" fill="#161b22"><title>2025-09-21: 0 commits</title></rect><rect x="223" y="31" width="11" height="11" rx="2" fill="#161b22"><title>2025-09-22: 0 commits</title></rect><rect x="223" y="44" width="11" height="11" rx="2" fill="#161b22"><title>2025-09-23: 0 commits</title></rect><rect x="223" y="57" width="11" height="11" rx="2" fill="#161b22"><title>2025-09-24: 0 commits</title></rect><rect x="223" y="70" width="11" height="11" rx="2" fill="#0e4429"><title>2025-09-25: 3 commits</title></rect><rect x="223" y="83" width="11" height="11" rx="2" fill="#0e4429"><title>2025-09-26: 1 commit</title></rect><rect x="223" y="96" width="11" height="11" rx="2" fill="#161b22"><title>2025-09-27: 0 commits</title></rect><rect x="236" y="18" width="11" height="11" rx="2" fill="#161b22"><title>2025-09-28: 0 commits</title></rect><rect x="236" y="31" width="11" height="11" rx="2" fill="#161b22"><title>2025-09-29: 0 commits</title></rect><rect x="236" y="44" width="11" height="11" rx="2" fill="#161b22"><title>2025-09-30: 0 commits</title></rect><rect x="236" y="57" width="11" height="11" rx="2" fill="#0e4429"><title>2025-10-01: 2 commits</title></rect><rect x="236" y="70" width="11" height="11" rx="2" fill="#161b22"><title>2025-10-02: 0 commits</title></rect><rect x="236" y="83" width="11" height="11" rx="2" fill="#161b22"><title>2025-10-03: 0 commits</title></rect><rect x="236" y="96" width="11" height="11" rx="2" fill="#161b22"><title>2025-10-04: 0 commits</title></rect><rect x="249" y="18" width="11" height="11" rx="2" fill="#161b22"><title>2025-10-05: 0 commits</title></rect><rect x="249" y="31" width="11" height="11" rx="2" fill="#161b22"><title>2025-10-06: 0 commits</title></rect><rect x="249" y="44" width="11" height="11" rx="2" fill="#161b22"><title>2025-10-07: 0 commits</title></rect><rect x="249" y="57" width="11" height="11" rx="2" fill="#161b22"><title>2025-10-08: 0 commits</title></rect><rect x="249" y="70" width="11" height="11" rx="2" fill="#161b22"><title>2025-10-09: 0 commits</title></rect><rect x="249" y="83" width="11" height="11" rx="2" fill="#161b22"><title>2025-10-10: 0 commits</title></rect><rect x="249" y="96" width="11" height="11" rx="2" fill="#161b22"><title>2025-10-11: 0 commits</title></rect><rect x="262" y="18" width="11" height="11" rx="2" fill="#0e4429"><title>2025-10-12: 1 commit</title></rect><rect x="262" y="31" width="11" height="11" rx="2" fill="#0e4429"><title>2025-10-13: 1 commit</title></rect><rect x="262" y="44" width="11" height="11" rx="2" fill="#0e4429"><title>2025-10-14: 3 commits</title></rect><rect x="262" y="57" width="11" height="11" rx="2" fill="#0e4429"><title>2025-10-15: 1 commit</title></rect><rect x="262" y="70" width="11" height="11" rx="2" fill="#161b22"><title>2025-10-16: 0 commits</title></rect><rect x="262" y="83" width="11" height="11" rx="2" fill="#0e4429"><title>2025-10-17: 3 commits</title></rect><rect x="262" y="96" width="11" height="11" rx="2" fill="#161b22"><title>2025-10-18: 0 commits</title></rect><rect x="275" y="18" width="11" height="11" rx="2" fill="#161b22"><title>2025-10-19: 0 commits</title></rect><rect x="275" y="31" width="11" height="11" rx="2" fill="#0e4429"><title>2025-10-20: 4 commits</title></rect><rect x="275" y="44" width="11" height="11" rx="2" fill="#161b22"><title>2025-10-21: 0 commits</title></rect><rect x="275" y="57" width="11" height="11" rx="2" fill="#161b22"><title>2025-10-22: 0 commits</title></rect><rect x="275" y="70" width="11" height="11" rx="2" fill="#0e4429"><title>2025-10-23: 2 commits</title></rect><rect x="275" y="83" width="11" height="11" rx="2" fill="#161b22"><title>2025-10-24: 0 commits</title></rect><rect x="275" y="96" width="11" height="11" rx="2" fill="#161b22"><title>2025-10-25: 0 commits</title></rect><rect x="288" y="18" width="11" height="11" rx="2" fill="#161b22"><title>2025-10-26: 0 commits</title></rect><rect x="288" y="31" width="11" height="11" rx="2" fill="#161b22"><title>2025-10-27: 0 commits</title></rect><rect x="288" y="44" width="11" height="11" rx="2" fill="#161b22"><title>2025-10-28: 0 commits</title></rect><rect x="288" y="57" width="11" height="11" rx="2" fill="#161b22"><title>2025-10-29: 0 commits</title></rect><rect x="288" y="70" width="11" height="11" rx="2" fill="#161b22"><title>2025-10-30: 0 commits</title></rect><rect x="288" y="83" width="11" height="11" rx="2" fill="#161b22"><title>2025-10-31: 0 commits</title></rect><rect x="288" y="96" width="11" height="11" rx="2" fill="#161b22"><title>2025-11-01: 0 commits</title></rect><rect x="301" y="18" width="11" height="11" rx="2" fill="#161b22"><title>2025-11-02: 0 commits</title></rect><rect x="301" y="31" width="11" height="11" rx="2" fill="#161b22"><title>2025-11-03: 0 commits</title></rect><rect x="301" y="44" width="11" height="11" rx="2" fill="#161b22"><title>2025-11-04: 0 commits</title></rect><rect x="301" y="57" width="11" height="11" rx="2" fill="#161b22"><title>2025-11-05: 0 commits</title></rect><rect x="301" y="70" width="11" height="11" rx="2" fill="#161b22"><title>2025-11-06: 0 commits</title></rect><rect x="301" y="83" width="11" height="11" rx="2" fill="#161b22"><title>2025-11-07: 0 commits</title></rect><rect x="301" y="96" width="11" height="11" rx="2" fill="#161b22"><title>2025-11-08: 0 commits</title></rect><rect x="314" y="18" width="11" height="11" rx="2" fill="#161b22"><title>2025-11-09: 0 commits</title></rect><rect x="314" y="31" width="11" height="11" rx="2" fill="#006d32"><title>2025-11-10: 20 commits</title></rect><rect x="314" y="44" width="11" height="11" rx="2" fill="#161b22"><title>2025-11-11: 0 commits</title></rect><rect x="314" y="57" width="11" height="11" rx="2" fill="#006d32"><title>2025-11-12: 22 commits</title></rect><rect x="314" y="70" width="11" height="11" rx="2" fill="#006d32"><title>2025-11-13: 14 commits</title></rect><rect x="314" y="83" width="11" height="11" rx="2" fill="#161b22"><title>2025-11-14: 0 commits</title></rect><rect x="314" y="96" width="11" height="11" rx="2" fill="#0e4429"><title>2025-11-15: 9 commits</title></rect><rect x="327" y="18" width="11" height="11" rx="2" fill="#0e4429"><title>2025-11-16: 3 commits</title></rect><rect x="327" y="31" width="11" height="11" rx="2" fill="#0e4429"><title>2025-11-17: 5 commits</title></rect><rect x="327" y="44" width="11" height="11" rx="2" fill="#161b22"><title>2025-11-18: 0 commits</title></rect><rect x="327" y="57" width="11" height="11" rx="2" fill="#161b22"><title>2025-11-19: 0 commits</title></rect><rect x="327" y="70" width="11" height="11" rx="2" fill="#161b22"><title>2025-11-20: 0 commits</title></rect><rect x="327" y="83" width="11" height="11" rx="2" fill="#161b22"><title>2025-11-21: 0 commits</title></rect><rect x="327" y="96" width="11" height="11" rx="2" fill="#161b22"><title>2025-11-22: 0 commits</title></rect><rect x="340" y="18" width="11" height="11" rx="2" fill="#161b22"><title>2025-11-23: 0 commits</title></rect><rect x="340" y="31" width="11" height="11" rx="2" fill="#161b22"><title>2025-11-24: 0 commits</title></rect><rect x="340" y="44" width="11" height="11" rx="2" fill="#161b22"><title>2025-11-25: 0 commits</title></rect><rect x="340" y="57" width="11" height="11" rx="2" fill="#161b22"><title>2025-11-26: 0 commits</title></rect><rect x="340" y="70" width="11" height="11" rx="2" fill="#161b22"><title>2025-11-27: 0 commits</title></rect><rect x="340" y="83" width="11" height="11" rx="2" fill="#161b22"><title>2025-11-28: 0 commits</title></rect><rect x="340" y="96" width="11" height="11" rx="2" fill="#161b22"><title>2025-11-29: 0 commits</title></rect><rect x="353" y="18" width="11" height="11" rx="2" fill="#161b22"><title>2025-11-30: 0 commits</title></rect><rect x="353" y="31" width="11" height="11" rx="2" fill="#161b22"><title>2025-12-01: 0 commits</title></rect><rect x="353" y="44" width="11" height="11" rx="2" fill="#161b22"><title>2025-12-02: 0 commits</title></rect><rect x="353" y="57" width="11" height="11" rx="2" fill="#161b22"><title>2025-12-03: 0 commits</title></rect><rect x="353" y="70" width="11" height="11" rx="2" fill="#161b22"><title>2025-12-04: 0 commits</title></rect><rect x="353" y="83" width="11" height="11" rx="2" fill="#161b22"><title>2025-12-05: 0 commits</title></rect><rect x="353" y="96" width="11" height="11" rx="2" fill="#161b22"><title>2025-12-06: 0 commits</title></rect><rect x="366" y="18" width="11" height="11" rx="2" fill="#161b22"><title>2025-12-07: 0 commits</title></rect><rect x="366" y="31" width="11" height="11" rx="2" fill="#161b22"><title>2025-12-08: 0 commits</title></rect><rect x="366" y="44" width="11" height="11" rx="2" fill="#161b22"><title>2025-12-09: 0 commits</title></rect><rect x="366" y="57" width="11" height="11" rx="2" fill="#161b22"><title>2025-12-10: 0 commits</title></rect><rect x="366" y="70" width="11" height="11" rx="2" fill="#161b22"><title>2025-12-11: 0 commits</title></rect><rect x="366" y="83" width="11" height="11" rx="2" fill="#161b22"><title>2025-12-12: 0 commits</title></rect><rect x="366" y="96" width="11" height="11" rx="2" fill="#161b22"><title>2025-12-13: 0 commits</title></rect><rect x="379" y="18" width="11" height="11" rx="2" fill="#0e4429"><title>2025-12-14: 3 commits</title></rect><rect x="379" y="31" width="11" height="11" rx="2" fill="#161b22"><title>2025-12-15: 0 commits</title></rect><rect x="379" y="44" width="11" height="11" rx="2" fill="#161b22"><title>2025-12-16: 0 commits</title></rect><rect x="379" y="57" width="11" height="11" rx="2" fill="#161b22"><title>2025-12-17: 0 commits</title></rect><rect x="379" y="70" width="11" height="11" rx="2" fill="#161b22"><title>2025-12-18: 0 commits</title></rect><rect x="379" y="83" width="11" height="11" rx="2" fill="#0e4429"><title>2025-12-19: 1 commit</title></rect><rect x="379" y="96" width="11" height="11" rx="2" fill="#161b22"><title>2025-12-20: 0 commits</title></rect><rect x="392" y="18" width="11" height="11" rx="2" fill="#161b22"><title>2025-12-21: 0 commits</title></rect><rect x="392" y="31" width="11" height="11" rx="2" fill="#161b22"><title>2025-12-22: 0 commits</title></rect><rect x="392" y="44" width="11" height="11" rx="2" fill="#161b22"><title>2025-12-23: 0 commits</title></rect><rect x="392" y="57" width="11" height="11" rx="2" fill="#161b22"><title>2025-12-24: 0 commits</title></rect><rect x="392" y="70" width="11" height="11" rx="2" fill="#161b22"><title>2025-12-25: 0 commits</title></rect><rect x="392" y="83" width="11" height="11" rx="2" fill="#161b22"><title>2025-12-26: 0 commits</title></rect><rect x="392" y="96" width="11" height="11" rx="2" fill="#161b22"><title>2025-12-27: 0 commits</title></rect><rect x="405" y="18" width="11" height="11" rx="2" fill="#161b22"><title>2025-12-28: 0 commits</title></rect><rect x="405" y="31" width="11" height="11" rx="2" fill="#0e4429"><title>2025-12-29: 3 commits</title></rect><rect x="405" y="44" width="11" height="11" rx="2" fill="#0e4429"><title>2025-12-30: 1 commit</title></rect><rect x="405" y="57" width="11" height="11" rx="2" fill="#161b22"><title>2025-12-31: 0 commits</title></rect><rect x="405" y="70" width="11" height="11" rx="2" fill="#161b22"><title>2026-01-01: 0 commits</title></rect><rect x="405" y="83" width="11" height="11" rx="2" fill="#161b22"><title>2026-01-02: 0 commits</title></rect><rect x="405" y="96" width="11" height="11" rx="2" fill="#161b22"><title>2026-01-03: 0 commits</title></rect><rect x="418" y="18" width="11" height="11" rx="2" fill="#161b22"><title>2026-01-04: 0 commits</title></rect><rect x="418" y="31" width="11" height="11" rx="2" fill="#161b22"><title>2026-01-05: 0 commits</title></rect><rect x="418" y="44" width="11" height="11" rx="2" fill="#161b22"><title>2026-01-06: 0 commits</title></rect><rect x="418" y="57" width="11" height="11" rx="2" fill="#161b22"><title>2026-01-07: 0 commits</title></rect><rect x="418" y="70" width="11" height="11" rx="2" fill="#161b22"><title>2026-01-08: 0 commits</title></rect><rect x="418" y="83" width="11" height="11" rx="2" fill="#161b22"><title>2026-01-09: 0 commits</title></rect><rect x="418" y="96" width="11" height="11" rx="2" fill="#161b22"><title>2026-01-10: 0 commits</title></rect><rect x="431" y="18" width="11" height="11" rx="2" fill="#161b22"><title>2026-01-11: 0 commits</title></rect><rect x="431" y="31" width="11" height="11" rx="2" fill="#161b22"><title>2026-01-12: 0 commits</title></rect><rect x="431" y="44" width="11" height="11" rx="2" fill="#161b22"><title>2026-01-13: 0 commits</title></rect><rect x="431" y="57" width="11" height="11" rx="2" fill="#161b22"><title>2026-01-14: 0 commits</title></rect><rect x="431" y="70" width="11" height="11" rx="2" fill="#161b22"><title>2026-01-15: 0 commits</title></rect><rect x="431" y="83" width="11" height="11" rx="2" fill="#161b22"><title>2026-01-16: 0 commits</title></rect><rect x="431" y="96" width="11" height="11" rx="2" fill="#161b22"><title>2026-01-17: 0 commits</title></rect><rect x="444" y="18" width="11" height="11" rx="2" fill="#161b22"><title>2026-01-18: 0 commits</title></rect><rect x="444" y="31" width="11" height="11" rx="2" fill="#161b22"><title>2026-01-19: 0 commits</title></rect><rect x="444" y="44" width="11" height="11" rx="2" fill="#161b22"><title>2026-01-20: 0 commits</title></rect><rect x="444" y="57" width="11" height="11" rx="2" fill="#161b22"><title>2026-01-21: 0 commits</title></rect><rect x="444" y="70" width="11" height="11" rx="2" fill="#161b22"><title>2026-01-22: 0 commits</title></rect><rect x="444" y="83" width="11" height="11" rx="2" fill="#161b22"><title>2026-01-23: 0 commits</title></rect><rect x="444" y="96" width="11" height="11" rx="2" fill="#161b22"><title>2026-01-24: 0 commits</title></rect><rect x="457" y="18" width="11" height="11" rx="2" fill="#161b22"><title>2026-01-25: 0 commits</title></rect><rect x="457" y="31" width="11" height="11" rx="2" fill="#161b22"><title>2026-01-26: 0 commits</title></rect><rect x="457" y="44" width="11" height="11" rx="2" fill="#161b22"><title>2026-01-27: 0 commits</title></rect><rect x="457" y="57" width="11" height="11" rx="2" fill="#161b22"><title>2026-01-28: 0 commits</title></rect><rect x="457" y="70" width="11" height="11" rx="2" fill="#161b22"><title>2026-01-29: 0 commits</title></rect><rect x="457" y="83" width="11" height="11" rx="2" fill="#161b22"><title>2026-01-30: 0 commits</title></rect><rect x="457" y="96" width="11" height="11" rx="2" fill="#161b22"><title>2026-01-31: 0 commits</title></rect><rect x="470" y="18" width="11" height="11" rx="2" fill="#0e4429"><title>2026-02-01: 5 commits</title></rect><rect x="470" y="31" width="11" height="11" rx="2" fill="#0e4429"><title>2026-02-02: 1 commit</title></rect><rect x="470" y="44" width="11" height="11" rx="2" fill="#0e4429"><title>2026-02-03: 1 commit</title></rect><rect x="470" y="57" width="11" height="11" rx="2" fill="#0e4429"><title>2026-02-04: 1 commit</title></rect><rect x="470" y="70" width="11" height="11" rx="2" fill="#006d32"><title>2026-02-05: 14 commits</title></rect><rect x="470" y="83" width="11" height="11" rx="2" fill="#161b22"><title>2026-02-06: 0 commits</title></rect><rect x="470" y="96" width="11" height="11" rx="2" fill="#161b22"><title>2026-02-07: 0 commits</title></rect><rect x="483" y="18" width="11" height="11" rx="2" fill="#161b22"><title>2026-02-08: 0 commits</title></rect><rect x="483" y="31" width="11" height="11" rx="2" fill="#26a641"><title>2026-02-09: 89 commits</title></rect><rect x="483" y="44" width="11" height="11" rx="2" fill="#26a641"><title>2026-02-10: 67 commits</title></rect><rect x="483" y="57" width="11" height="11" rx="2" fill="#006d32"><title>2026-02-11: 50 commits</title></rect><rect x="483" y="70" width="11" height="11" rx="2" fill="#26a641"><title>2026-02-12: 88 commits</title></rect><rect x="483" y="83" width="11" height="11" rx="2" fill="#006d32"><title>2026-02-13: 45 commits</title></rect><rect x="483" y="96" width="11" height="11" rx="2" fill="#161b22"><title>2026-02-14: 0 commits</title></rect><rect x="496" y="18" width="11" height="11" rx="2" fill="#0e4429"><title>2026-02-15: 3 commits</title></rect><rect x="496" y="31" width="11" height="11" rx="2" fill="#161b22"><title>2026-02-16: 0 commits</title></rect><rect x="496" y="44" width="11" height="11" rx="2" fill="#161b22"><title>2026-02-17: 0 commits</title></rect><rect x="496" y="57" width="11" height="11" rx="2" fill="#0e4429"><title>2026-02-18: 5 commits</title></rect><rect x="496" y="70" width="11" height="11" rx="2" fill="#161b22"><title>2026-02-19: 0 commits</title></rect><rect x="496" y="83" width="11" height="11" rx="2" fill="#161b22"><title>2026-02-20: 0 commits</title></rect><rect x="496" y="96" width="11" height="11" rx="2" fill="#161b22"><title>2026-02-21: 0 commits</title></rect><rect x="509" y="18" width="11" height="11" rx="2" fill="#161b22"><title>2026-02-22: 0 commits</title></rect><rect x="509" y="31" width="11" height="11" rx="2" fill="#161b22"><title>2026-02-23: 0 commits</title></rect><rect x="509" y="44" width="11" height="11" rx="2" fill="#161b22"><title>2026-02-24: 0 commits</title></rect><rect x="509" y="57" width="11" height="11" rx="2" fill="#006d32"><title>2026-02-25: 13 commits</title></rect><rect x="509" y="70" width="11" height="11" rx="2" fill="#161b22"><title>2026-02-26: 0 commits</title></rect><rect x="509" y="83" width="11" height="11" rx="2" fill="#161b22"><title>2026-02-27: 0 commits</title></rect><rect x="509" y="96" width="11" height="11" rx="2" fill="#161b22"><title>2026-02-28: 0 commits</title></rect><rect x="522" y="18" width="11" height="11" rx="2" fill="#161b22"><title>2026-03-01: 0 commits</title></rect><rect x="522" y="31" width="11" height="11" rx="2" fill="#0e4429"><title>2026-03-02: 4 commits</title></rect><rect x="522" y="44" width="11" height="11" rx="2" fill="#0e4429"><title>2026-03-03: 3 commits</title></rect><rect x="522" y="57" width="11" height="11" rx="2" fill="#006d32"><title>2026-03-04: 48 commits</title></rect><rect x="522" y="70" width="11" height="11" rx="2" fill="#0e4429"><title>2026-03-05: 4 commits</title></rect><rect x="522" y="83" width="11" height="11" rx="2" fill="#161b22"><title>2026-03-06: 0 commits</title></rect><rect x="522" y="96" width="11" height="11" rx="2" fill="#006d32"><title>2026-03-07: 29 commits</title></rect><rect x="535" y="18" width="11" height="11" rx="2" fill="#006d32"><title>2026-03-08: 42 commits</title></rect><rect x="535" y="31" width="11" height="11" rx="2" fill="#26a641"><title>2026-03-09: 97 commits</title></rect><rect x="535" y="44" width="11" height="11" rx="2" fill="#006d32"><title>2026-03-10: 58 commits</title></rect><rect x="535" y="57" width="11" height="11" rx="2" fill="#26a641"><title>2026-03-11: 68 commits</title></rect><rect x="535" y="70" width="11" height="11" rx="2" fill="#006d32"><title>2026-03-12: 28 commits</title></rect><rect x="535" y="83" width="11" height="11" rx="2" fill="#006d32"><title>2026-03-13: 48 commits</title></rect><rect x="535" y="96" width="11" height="11" rx="2" fill="#006d32"><title>2026-03-14: 37 commits</title></rect><rect x="548" y="18" width="11" height="11" rx="2" fill="#006d32"><title>2026-03-15: 52 commits</title></rect><rect x="548" y="31" width="11" height="11" rx="2" fill="#006d32"><title>2026-03-16: 58 commits</title></rect><rect x="548" y="44" width="11" height="11" rx="2" fill="#006d32"><title>2026-03-17: 13 commits</title></rect><rect x="548" y="57" width="11" height="11" rx="2" fill="#0e4429"><title>2026-03-18: 7 commits</title></rect><rect x="548" y="70" width="11" height="11" rx="2" fill="#0e4429"><title>2026-03-19: 11 commits</title></rect><rect x="548" y="83" width="11" height="11" rx="2" fill="#006d32"><title>2026-03-20: 38 commits</title></rect><rect x="548" y="96" width="11" height="11" rx="2" fill="#006d32"><title>2026-03-21: 31 commits</title></rect><rect x="561" y="18" width="11" height="11" rx="2" fill="#006d32"><title>2026-03-22: 64 commits</title></rect><rect x="561" y="31" width="11" height="11" rx="2" fill="#26a641"><title>2026-03-23: 81 commits</title></rect><rect x="561" y="44" width="11" height="11" rx="2" fill="#39d353"><title>2026-03-24: 284 commits</title></rect><rect x="561" y="57" width="11" height="11" rx="2" fill="#39d353"><title>2026-03-25: 150 commits</title></rect><rect x="561" y="70" width="11" height="11" rx="2" fill="#006d32"><title>2026-03-26: 50 commits</title></rect><rect x="561" y="83" width="11" height="11" rx="2" fill="#006d32"><title>2026-03-27: 43 commits</title></rect><rect x="561" y="96" width="11" height="11" rx="2" fill="#006d32"><title>2026-03-28: 25 commits</title></rect><rect x="574" y="18" width="11" height="11" rx="2" fill="#006d32"><title>2026-03-29: 46 commits</title></rect><rect x="574" y="31" width="11" height="11" rx="2" fill="#006d32"><title>2026-03-30: 52 commits</title></rect><rect x="574" y="44" width="11" height="11" rx="2" fill="#26a641"><title>2026-03-31: 139 commits</title></rect><rect x="574" y="57" width="11" height="11" rx="2" fill="#26a641"><title>2026-04-01: 80 commits</title></rect><rect x="574" y="70" width="11" height="11" rx="2" fill="#006d32"><title>2026-04-02: 46 commits</title></rect><rect x="574" y="83" width="11" height="11" rx="2" fill="#26a641"><title>2026-04-03: 87 commits</title></rect><rect x="574" y="96" width="11" height="11" rx="2" fill="#006d32"><title>2026-04-04: 15 commits</title></rect><rect x="587" y="18" width="11" height="11" rx="2" fill="#39d353"><title>2026-04-05: 150 commits</title></rect><rect x="587" y="31" width="11" height="11" rx="2" fill="#26a641"><title>2026-04-06: 92 commits</title></rect><rect x="587" y="44" width="11" height="11" rx="2" fill="#006d32"><title>2026-04-07: 37 commits</title></rect><rect x="587" y="57" width="11" height="11" rx="2" fill="#26a641"><title>2026-04-08: 110 commits</title></rect><rect x="587" y="70" width="11" height="11" rx="2" fill="#006d32"><title>2026-04-09: 62 commits</title></rect><rect x="587" y="83" width="11" height="11" rx="2" fill="#26a641"><title>2026-04-10: 111 commits</title></rect><rect x="587" y="96" width="11" height="11" rx="2" fill="#26a641"><title>2026-04-11: 66 commits</title></rect><rect x="600" y="18" width="11" height="11" rx="2" fill="#39d353"><title>2026-04-12: 229 commits</title></rect><rect x="600" y="31" width="11" height="11" rx="2" fill="#26a641"><title>2026-04-13: 144 commits</title></rect><rect x="600" y="44" width="11" height="11" rx="2" fill="#26a641"><title>2026-04-14: 86 commits</title></rect><rect x="600" y="57" width="11" height="11" rx="2" fill="#006d32"><title>2026-04-15: 21 commits</title></rect><rect x="600" y="70" width="11" height="11" rx="2" fill="#006d32"><title>2026-04-16: 23 commits</title></rect><rect x="600" y="83" width="11" height="11" rx="2" fill="#26a641"><title>2026-04-17: 77 commits</title></rect><rect x="600" y="96" width="11" height="11" rx="2" fill="#39d353"><title>2026-04-18: 279 commits</title></rect><rect x="613" y="18" width="11" height="11" rx="2" fill="#006d32"><title>2026-04-19: 26 commits</title></rect><rect x="613" y="31" width="11" height="11" rx="2" fill="#26a641"><title>2026-04-20: 93 commits</title></rect><rect x="613" y="44" width="11" height="11" rx="2" fill="#006d32"><title>2026-04-21: 23 commits</title></rect><rect x="613" y="57" width="11" height="11" rx="2" fill="#006d32"><title>2026-04-22: 18 commits</title></rect><rect x="613" y="70" width="11" height="11" rx="2" fill="#26a641"><title>2026-04-23: 123 commits</title></rect><rect x="613" y="83" width="11" height="11" rx="2" fill="#39d353"><title>2026-04-24: 302 commits</title></rect><rect x="613" y="96" width="11" height="11" rx="2" fill="#39d353"><title>2026-04-25: 159 commits</title></rect><rect x="626" y="18" width="11" height="11" rx="2" fill="#26a641"><title>2026-04-26: 89 commits</title></rect><rect x="626" y="31" width="11" height="11" rx="2" fill="#39d353"><title>2026-04-27: 322 commits</title></rect><rect x="626" y="44" width="11" height="11" rx="2" fill="#39d353"><title>2026-04-28: 363 commits</title></rect><rect x="626" y="57" width="11" height="11" rx="2" fill="#006d32"><title>2026-04-29: 24 commits</title></rect><rect x="626" y="70" width="11" height="11" rx="2" fill="#006d32"><title>2026-04-30: 21 commits</title></rect><rect x="626" y="83" width="11" height="11" rx="2" fill="#26a641"><title>2026-05-01: 137 commits</title></rect><rect x="626" y="96" width="11" height="11" rx="2" fill="#26a641"><title>2026-05-02: 136 commits</title></rect><rect x="639" y="18" width="11" height="11" rx="2" fill="#006d32"><title>2026-05-03: 59 commits</title></rect><rect x="639" y="31" width="11" height="11" rx="2" fill="#39d353"><title>2026-05-04: 172 commits</title></rect><rect x="639" y="44" width="11" height="11" rx="2" fill="#39d353"><title>2026-05-05: 265 commits</title></rect><rect x="639" y="57" width="11" height="11" rx="2" fill="#39d353"><title>2026-05-06: 454 commits</title></rect><rect x="639" y="70" width="11" height="11" rx="2" fill="#26a641"><title>2026-05-07: 130 commits</title></rect><rect x="639" y="83" width="11" height="11" rx="2" fill="#39d353"><title>2026-05-08: 458 commits</title></rect><rect x="639" y="96" width="11" height="11" rx="2" fill="#26a641"><title>2026-05-09: 66 commits</title></rect><rect x="652" y="18" width="11" height="11" rx="2" fill="#39d353"><title>2026-05-10: 329 commits</title></rect><rect x="652" y="31" width="11" height="11" rx="2" fill="#39d353"><title>2026-05-11: 159 commits</title></rect><rect x="652" y="44" width="11" height="11" rx="2" fill="#26a641"><title>2026-05-12: 145 commits</title></rect><rect x="652" y="57" width="11" height="11" rx="2" fill="#0e4429"><title>2026-05-13: 1 commit</title></rect><rect x="652" y="70" width="11" height="11" rx="2" fill="#26a641"><title>2026-05-14: 137 commits</title></rect><rect x="652" y="83" width="11" height="11" rx="2" fill="#006d32"><title>2026-05-15: 36 commits</title></rect><rect x="652" y="96" width="11" height="11" rx="2" fill="#006d32"><title>2026-05-16: 44 commits</title></rect><rect x="665" y="18" width="11" height="11" rx="2" fill="#39d353"><title>2026-05-17: 276 commits</title></rect><rect x="665" y="31" width="11" height="11" rx="2" fill="#26a641"><title>2026-05-18: 96 commits</title></rect><rect x="665" y="44" width="11" height="11" rx="2" fill="#006d32"><title>2026-05-19: 16 commits</title></rect><rect x="665" y="57" width="11" height="11" rx="2" fill="#26a641"><title>2026-05-20: 108 commits</title></rect><rect x="665" y="70" width="11" height="11" rx="2" fill="#39d353"><title>2026-05-21: 342 commits</title></rect><rect x="665" y="83" width="11" height="11" rx="2" fill="#26a641"><title>2026-05-22: 146 commits</title></rect><rect x="665" y="96" width="11" height="11" rx="2" fill="#006d32"><title>2026-05-23: 62 commits</title></rect><rect x="678" y="18" width="11" height="11" rx="2" fill="#26a641"><title>2026-05-24: 121 commits</title></rect><rect x="678" y="31" width="11" height="11" rx="2" fill="#006d32"><title>2026-05-25: 19 commits</title></rect><rect x="678" y="44" width="11" height="11" rx="2" fill="#26a641"><title>2026-05-26: 83 commits</title></rect><rect x="678" y="57" width="11" height="11" rx="2" fill="#006d32"><title>2026-05-27: 65 commits</title></rect><rect x="678" y="70" width="11" height="11" rx="2" fill="#26a641"><title>2026-05-28: 75 commits</title></rect><rect x="678" y="83" width="11" height="11" rx="2" fill="#26a641"><title>2026-05-29: 66 commits</title></rect><rect x="678" y="96" width="11" height="11" rx="2" fill="#0e4429"><title>2026-05-30: 7 commits</title></rect><rect x="691" y="18" width="11" height="11" rx="2" fill="#006d32"><title>2026-05-31: 37 commits</title></rect><rect x="691" y="31" width="11" height="11" rx="2" fill="#0e4429"><title>2026-06-01: 9 commits</title></rect><rect x="691" y="44" width="11" height="11" rx="2" fill="#0e4429"><title>2026-06-02: 6 commits</title></rect><rect x="691" y="57" width="11" height="11" rx="2" fill="#0e4429"><title>2026-06-03: 9 commits</title></rect><rect x="691" y="70" width="11" height="11" rx="2" fill="#006d32"><title>2026-06-04: 14 commits</title></rect><rect x="691" y="83" width="11" height="11" rx="2" fill="#26a641"><title>2026-06-05: 74 commits</title></rect><rect x="691" y="96" width="11" height="11" rx="2" fill="#0e4429"><title>2026-06-06: 7 commits</title></rect>
    
    <text x="603" y="126.5" text-anchor="end" fill="#8b949e" font-size="9" font-family="Segoe UI,Helvetica,Arial,sans-serif">Less</text>
    <rect x="609" y="121" width="11" height="11" rx="2" fill="#161b22"/><rect x="622" y="121" width="11" height="11" rx="2" fill="#0e4429"/><rect x="635" y="121" width="11" height="11" rx="2" fill="#006d32"/><rect x="648" y="121" width="11" height="11" rx="2" fill="#26a641"/><rect x="661" y="121" width="11" height="11" rx="2" fill="#39d353"/>
    <text x="678" y="126.5" fill="#8b949e" font-size="9" font-family="Segoe UI,Helvetica,Arial,sans-serif">More</text>
  </svg>