<svg xmlns="http://www.w3.org/2000/svg" width="580" height="194" viewBox="0 0 580 194">
    <style>text { dominant-baseline: central; }</style>
    <rect width="100%" height="100%" rx="6" fill="#0d1117"/>
    <text x="30" y="25" text-anchor="end" fill="#8b949e" font-size="10" font-family="Segoe UI,Helvetica,Arial,sans-serif">Mon</text><text x="30" y="47" text-anchor="end" fill="#8b949e" font-size="10" font-family="Segoe UI,Helvetica,Arial,sans-serif">Tue</text><text x="30" y="69" text-anchor="end" fill="#8b949e" font-size="10" font-family="Segoe UI,Helvetica,Arial,sans-serif">Wed</text><text x="30" y="91" text-anchor="end" fill="#8b949e" font-size="10" font-family="Segoe UI,Helvetica,Arial,sans-serif">Thu</text><text x="30" y="113" text-anchor="end" fill="#8b949e" font-size="10" font-family="Segoe UI,Helvetica,Arial,sans-serif">Fri</text><text x="30" y="135" text-anchor="end" fill="#8b949e" font-size="10" font-family="Segoe UI,Helvetica,Arial,sans-serif">Sat</text><text x="30" y="157" text-anchor="end" fill="#8b949e" font-size="10" font-family="Segoe UI,Helvetica,Arial,sans-serif">Sun</text>
    <circle cx="49" cy="25" r="4.60" fill="#006d32"><title>Mon 00:00 KST · 60 commits</title></circle><circle cx="71" cy="25" r="4.52" fill="#006d32"><title>Mon 01:00 KST · 58 commits</title></circle><circle cx="93" cy="25" r="2.91" fill="#006d32"><title>Mon 02:00 KST · 24 commits</title></circle><circle cx="115" cy="25" r="3.46" fill="#006d32"><title>Mon 03:00 KST · 34 commits</title></circle><circle cx="137" cy="25" r="2.72" fill="#0e4429"><title>Mon 04:00 KST · 21 commits</title></circle><circle cx="159" cy="25" r="2.14" fill="#0e4429"><title>Mon 05:00 KST · 13 commits</title></circle><circle cx="181" cy="25" r="2.14" fill="#0e4429"><title>Mon 06:00 KST · 13 commits</title></circle><circle cx="203" cy="25" r="2.22" fill="#0e4429"><title>Mon 07:00 KST · 14 commits</title></circle><circle cx="225" cy="25" r="3.20" fill="#006d32"><title>Mon 08:00 KST · 29 commits</title></circle><circle cx="247" cy="25" r="4.24" fill="#006d32"><title>Mon 09:00 KST · 51 commits</title></circle><circle cx="269" cy="25" r="4.60" fill="#006d32"><title>Mon 10:00 KST · 60 commits</title></circle><circle cx="291" cy="25" r="6.36" fill="#26a641"><title>Mon 11:00 KST · 115 commits</title></circle><circle cx="313" cy="25" r="6.66" fill="#26a641"><title>Mon 12:00 KST · 126 commits</title></circle><circle cx="335" cy="25" r="6.39" fill="#26a641"><title>Mon 13:00 KST · 116 commits</title></circle><circle cx="357" cy="25" r="4.60" fill="#006d32"><title>Mon 14:00 KST · 60 commits</title></circle><circle cx="379" cy="25" r="5.41" fill="#26a641"><title>Mon 15:00 KST · 83 commits</title></circle><circle cx="401" cy="25" r="5.10" fill="#006d32"><title>Mon 16:00 KST · 74 commits</title></circle><circle cx="423" cy="25" r="5.17" fill="#26a641"><title>Mon 17:00 KST · 76 commits</title></circle><circle cx="445" cy="25" r="4.75" fill="#006d32"><title>Mon 18:00 KST · 64 commits</title></circle><circle cx="467" cy="25" r="4.56" fill="#006d32"><title>Mon 19:00 KST · 59 commits</title></circle><circle cx="489" cy="25" r="5.34" fill="#26a641"><title>Mon 20:00 KST · 81 commits</title></circle><circle cx="511" cy="25" r="4.82" fill="#006d32"><title>Mon 21:00 KST · 66 commits</title></circle><circle cx="533" cy="25" r="3.80" fill="#006d32"><title>Mon 22:00 KST · 41 commits</title></circle><circle cx="555" cy="25" r="6.50" fill="#26a641"><title>Mon 23:00 KST · 120 commits</title></circle><circle cx="49" cy="47" r="6.28" fill="#26a641"><title>Tue 00:00 KST · 112 commits</title></circle><circle cx="71" cy="47" r="3.51" fill="#006d32"><title>Tue 01:00 KST · 35 commits</title></circle><circle cx="93" cy="47" r="5.00" fill="#006d32"><title>Tue 02:00 KST · 71 commits</title></circle><circle cx="115" cy="47" r="5.78" fill="#26a641"><title>Tue 03:00 KST · 95 commits</title></circle><circle cx="137" cy="47" r="4.78" fill="#006d32"><title>Tue 04:00 KST · 65 commits</title></circle><circle cx="159" cy="47" r="3.75" fill="#006d32"><title>Tue 05:00 KST · 40 commits</title></circle><circle cx="181" cy="47" r="2.22" fill="#0e4429"><title>Tue 06:00 KST · 14 commits</title></circle><circle cx="203" cy="47" r="2.14" fill="#0e4429"><title>Tue 07:00 KST · 13 commits</title></circle><circle cx="225" cy="47" r="2.14" fill="#0e4429"><title>Tue 08:00 KST · 13 commits</title></circle><circle cx="247" cy="47" r="3.03" fill="#006d32"><title>Tue 09:00 KST · 26 commits</title></circle><circle cx="269" cy="47" r="3.25" fill="#006d32"><title>Tue 10:00 KST · 30 commits</title></circle><circle cx="291" cy="47" r="4.56" fill="#006d32"><title>Tue 11:00 KST · 59 commits</title></circle><circle cx="313" cy="47" r="5.60" fill="#26a641"><title>Tue 12:00 KST · 89 commits</title></circle><circle cx="335" cy="47" r="4.93" fill="#006d32"><title>Tue 13:00 KST · 69 commits</title></circle><circle cx="357" cy="47" r="5.04" fill="#006d32"><title>Tue 14:00 KST · 72 commits</title></circle><circle cx="379" cy="47" r="6.39" fill="#26a641"><title>Tue 15:00 KST · 116 commits</title></circle><circle cx="401" cy="47" r="9.00" fill="#39d353"><title>Tue 16:00 KST · 230 commits</title></circle><circle cx="423" cy="47" r="6.92" fill="#26a641"><title>Tue 17:00 KST · 136 commits</title></circle><circle cx="445" cy="47" r="6.69" fill="#26a641"><title>Tue 18:00 KST · 127 commits</title></circle><circle cx="467" cy="47" r="5.44" fill="#26a641"><title>Tue 19:00 KST · 84 commits</title></circle><circle cx="489" cy="47" r="5.44" fill="#26a641"><title>Tue 20:00 KST · 84 commits</title></circle><circle cx="511" cy="47" r="5.69" fill="#26a641"><title>Tue 21:00 KST · 92 commits</title></circle><circle cx="533" cy="47" r="3.56" fill="#006d32"><title>Tue 22:00 KST · 36 commits</title></circle><circle cx="555" cy="47" r="5.27" fill="#26a641"><title>Tue 23:00 KST · 79 commits</title></circle><circle cx="49" cy="69" r="2.91" fill="#006d32"><title>Wed 00:00 KST · 24 commits</title></circle><circle cx="71" cy="69" r="3.94" fill="#006d32"><title>Wed 01:00 KST · 44 commits</title></circle><circle cx="93" cy="69" r="4.75" fill="#006d32"><title>Wed 02:00 KST · 64 commits</title></circle><circle cx="115" cy="69" r="3.85" fill="#006d32"><title>Wed 03:00 KST · 42 commits</title></circle><circle cx="137" cy="69" r="3.66" fill="#006d32"><title>Wed 04:00 KST · 38 commits</title></circle><circle cx="159" cy="69" r="2.97" fill="#006d32"><title>Wed 05:00 KST · 25 commits</title></circle><circle cx="181" cy="69" r="2.59" fill="#0e4429"><title>Wed 06:00 KST · 19 commits</title></circle><circle cx="203" cy="69" r="1.78" fill="#0e4429"><title>Wed 07:00 KST · 9 commits</title></circle><circle cx="225" cy="69" r="2.45" fill="#0e4429"><title>Wed 08:00 KST · 17 commits</title></circle><circle cx="247" cy="69" r="3.71" fill="#006d32"><title>Wed 09:00 KST · 39 commits</title></circle><circle cx="269" cy="69" r="3.36" fill="#006d32"><title>Wed 10:00 KST · 32 commits</title></circle><circle cx="291" cy="69" r="3.75" fill="#006d32"><title>Wed 11:00 KST · 40 commits</title></circle><circle cx="313" cy="69" r="3.94" fill="#006d32"><title>Wed 12:00 KST · 44 commits</title></circle><circle cx="335" cy="69" r="4.40" fill="#006d32"><title>Wed 13:00 KST · 55 commits</title></circle><circle cx="357" cy="69" r="5.44" fill="#26a641"><title>Wed 14:00 KST · 84 commits</title></circle><circle cx="379" cy="69" r="5.21" fill="#26a641"><title>Wed 15:00 KST · 77 commits</title></circle><circle cx="401" cy="69" r="5.17" fill="#26a641"><title>Wed 16:00 KST · 76 commits</title></circle><circle cx="423" cy="69" r="5.27" fill="#26a641"><title>Wed 17:00 KST · 79 commits</title></circle><circle cx="445" cy="69" r="5.66" fill="#26a641"><title>Wed 18:00 KST · 91 commits</title></circle><circle cx="467" cy="69" r="6.20" fill="#26a641"><title>Wed 19:00 KST · 109 commits</title></circle><circle cx="489" cy="69" r="7.51" fill="#39d353"><title>Wed 20:00 KST · 160 commits</title></circle><circle cx="511" cy="69" r="5.04" fill="#006d32"><title>Wed 21:00 KST · 72 commits</title></circle><circle cx="533" cy="69" r="4.44" fill="#006d32"><title>Wed 22:00 KST · 56 commits</title></circle><circle cx="555" cy="69" r="5.81" fill="#26a641"><title>Wed 23:00 KST · 96 commits</title></circle><circle cx="49" cy="91" r="4.67" fill="#006d32"><title>Thu 00:00 KST · 62 commits</title></circle><circle cx="71" cy="91" r="2.65" fill="#0e4429"><title>Thu 01:00 KST · 20 commits</title></circle><circle cx="93" cy="91" r="2.14" fill="#0e4429"><title>Thu 02:00 KST · 13 commits</title></circle><circle cx="115" cy="91" r="3.85" fill="#006d32"><title>Thu 03:00 KST · 42 commits</title></circle><circle cx="137" cy="91" r="2.72" fill="#0e4429"><title>Thu 04:00 KST · 21 commits</title></circle><circle cx="159" cy="91" r="1.68" fill="#0e4429"><title>Thu 05:00 KST · 8 commits</title></circle><circle cx="181" cy="91" r="2.30" fill="#0e4429"><title>Thu 06:00 KST · 15 commits</title></circle><circle cx="203" cy="91" r="2.22" fill="#0e4429"><title>Thu 07:00 KST · 14 commits</title></circle><circle cx="225" cy="91" r="4.44" fill="#006d32"><title>Thu 08:00 KST · 56 commits</title></circle><circle cx="247" cy="91" r="5.17" fill="#26a641"><title>Thu 09:00 KST · 76 commits</title></circle><circle cx="269" cy="91" r="4.75" fill="#006d32"><title>Thu 10:00 KST · 64 commits</title></circle><circle cx="291" cy="91" r="3.98" fill="#006d32"><title>Thu 11:00 KST · 45 commits</title></circle><circle cx="313" cy="91" r="4.89" fill="#006d32"><title>Thu 12:00 KST · 68 commits</title></circle><circle cx="335" cy="91" r="5.69" fill="#26a641"><title>Thu 13:00 KST · 92 commits</title></circle><circle cx="357" cy="91" r="3.85" fill="#006d32"><title>Thu 14:00 KST · 42 commits</title></circle><circle cx="379" cy="91" r="4.63" fill="#006d32"><title>Thu 15:00 KST · 61 commits</title></circle><circle cx="401" cy="91" r="4.56" fill="#006d32"><title>Thu 16:00 KST · 59 commits</title></circle><circle cx="423" cy="91" r="4.48" fill="#006d32"><title>Thu 17:00 KST · 57 commits</title></circle><circle cx="445" cy="91" r="3.14" fill="#006d32"><title>Thu 18:00 KST · 28 commits</title></circle><circle cx="467" cy="91" r="5.27" fill="#26a641"><title>Thu 19:00 KST · 79 commits</title></circle><circle cx="489" cy="91" r="4.52" fill="#006d32"><title>Thu 20:00 KST · 58 commits</title></circle><circle cx="511" cy="91" r="6.39" fill="#26a641"><title>Thu 21:00 KST · 116 commits</title></circle><circle cx="533" cy="91" r="5.90" fill="#26a641"><title>Thu 22:00 KST · 99 commits</title></circle><circle cx="555" cy="91" r="8.35" fill="#39d353"><title>Thu 23:00 KST · 198 commits</title></circle><circle cx="49" cy="113" r="8.72" fill="#39d353"><title>Fri 00:00 KST · 216 commits</title></circle><circle cx="71" cy="113" r="5.41" fill="#26a641"><title>Fri 01:00 KST · 83 commits</title></circle><circle cx="93" cy="113" r="1.57" fill="#0e4429"><title>Fri 02:00 KST · 7 commits</title></circle><circle cx="115" cy="113" r="1.57" fill="#0e4429"><title>Fri 03:00 KST · 7 commits</title></circle><circle cx="137" cy="113" r="1.50" fill="#0e4429"><title>Fri 04:00 KST · 6 commits</title></circle><circle cx="181" cy="113" r="1.50" fill="#0e4429"><title>Fri 06:00 KST · 1 commit</title></circle><circle cx="203" cy="113" r="1.50" fill="#0e4429"><title>Fri 07:00 KST · 1 commit</title></circle><circle cx="225" cy="113" r="2.45" fill="#0e4429"><title>Fri 08:00 KST · 17 commits</title></circle><circle cx="247" cy="113" r="3.03" fill="#006d32"><title>Fri 09:00 KST · 26 commits</title></circle><circle cx="269" cy="113" r="4.78" fill="#006d32"><title>Fri 10:00 KST · 65 commits</title></circle><circle cx="291" cy="113" r="6.53" fill="#26a641"><title>Fri 11:00 KST · 121 commits</title></circle><circle cx="313" cy="113" r="6.36" fill="#26a641"><title>Fri 12:00 KST · 115 commits</title></circle><circle cx="335" cy="113" r="6.36" fill="#26a641"><title>Fri 13:00 KST · 115 commits</title></circle><circle cx="357" cy="113" r="7.10" fill="#26a641"><title>Fri 14:00 KST · 143 commits</title></circle><circle cx="379" cy="113" r="6.97" fill="#26a641"><title>Fri 15:00 KST · 138 commits</title></circle><circle cx="401" cy="113" r="5.93" fill="#26a641"><title>Fri 16:00 KST · 100 commits</title></circle><circle cx="423" cy="113" r="6.08" fill="#26a641"><title>Fri 17:00 KST · 105 commits</title></circle><circle cx="445" cy="113" r="6.14" fill="#26a641"><title>Fri 18:00 KST · 107 commits</title></circle><circle cx="467" cy="113" r="5.84" fill="#26a641"><title>Fri 19:00 KST · 97 commits</title></circle><circle cx="489" cy="113" r="5.84" fill="#26a641"><title>Fri 20:00 KST · 97 commits</title></circle><circle cx="511" cy="113" r="4.75" fill="#006d32"><title>Fri 21:00 KST · 64 commits</title></circle><circle cx="533" cy="113" r="3.71" fill="#006d32"><title>Fri 22:00 KST · 39 commits</title></circle><circle cx="555" cy="113" r="5.47" fill="#26a641"><title>Fri 23:00 KST · 85 commits</title></circle><circle cx="49" cy="135" r="5.37" fill="#26a641"><title>Sat 00:00 KST · 82 commits</title></circle><circle cx="71" cy="135" r="3.75" fill="#006d32"><title>Sat 01:00 KST · 40 commits</title></circle><circle cx="93" cy="135" r="3.66" fill="#006d32"><title>Sat 02:00 KST · 38 commits</title></circle><circle cx="115" cy="135" r="4.02" fill="#006d32"><title>Sat 03:00 KST · 46 commits</title></circle><circle cx="137" cy="135" r="2.97" fill="#006d32"><title>Sat 04:00 KST · 25 commits</title></circle><circle cx="159" cy="135" r="1.57" fill="#0e4429"><title>Sat 05:00 KST · 7 commits</title></circle><circle cx="181" cy="135" r="1.68" fill="#0e4429"><title>Sat 06:00 KST · 8 commits</title></circle><circle cx="203" cy="135" r="2.97" fill="#006d32"><title>Sat 07:00 KST · 25 commits</title></circle><circle cx="225" cy="135" r="2.72" fill="#0e4429"><title>Sat 08:00 KST · 21 commits</title></circle><circle cx="247" cy="135" r="2.37" fill="#0e4429"><title>Sat 09:00 KST · 16 commits</title></circle><circle cx="269" cy="135" r="1.68" fill="#0e4429"><title>Sat 10:00 KST · 8 commits</title></circle><circle cx="291" cy="135" r="2.30" fill="#0e4429"><title>Sat 11:00 KST · 15 commits</title></circle><circle cx="313" cy="135" r="4.52" fill="#006d32"><title>Sat 12:00 KST · 58 commits</title></circle><circle cx="335" cy="135" r="4.52" fill="#006d32"><title>Sat 13:00 KST · 58 commits</title></circle><circle cx="357" cy="135" r="2.22" fill="#0e4429"><title>Sat 14:00 KST · 14 commits</title></circle><circle cx="379" cy="135" r="4.07" fill="#006d32"><title>Sat 15:00 KST · 47 commits</title></circle><circle cx="401" cy="135" r="4.44" fill="#006d32"><title>Sat 16:00 KST · 56 commits</title></circle><circle cx="423" cy="135" r="5.04" fill="#006d32"><title>Sat 17:00 KST · 72 commits</title></circle><circle cx="445" cy="135" r="5.78" fill="#26a641"><title>Sat 18:00 KST · 95 commits</title></circle><circle cx="467" cy="135" r="5.04" fill="#006d32"><title>Sat 19:00 KST · 72 commits</title></circle><circle cx="489" cy="135" r="4.11" fill="#006d32"><title>Sat 20:00 KST · 48 commits</title></circle><circle cx="511" cy="135" r="4.15" fill="#006d32"><title>Sat 21:00 KST · 49 commits</title></circle><circle cx="533" cy="135" r="4.75" fill="#006d32"><title>Sat 22:00 KST · 64 commits</title></circle><circle cx="555" cy="135" r="3.41" fill="#006d32"><title>Sat 23:00 KST · 33 commits</title></circle><circle cx="49" cy="157" r="5.41" fill="#26a641"><title>Sun 00:00 KST · 83 commits</title></circle><circle cx="71" cy="157" r="4.11" fill="#006d32"><title>Sun 01:00 KST · 48 commits</title></circle><circle cx="93" cy="157" r="2.85" fill="#0e4429"><title>Sun 02:00 KST · 23 commits</title></circle><circle cx="115" cy="157" r="5.17" fill="#26a641"><title>Sun 03:00 KST · 76 commits</title></circle><circle cx="137" cy="157" r="2.78" fill="#0e4429"><title>Sun 04:00 KST · 22 commits</title></circle><circle cx="159" cy="157" r="1.50" fill="#0e4429"><title>Sun 05:00 KST · 4 commits</title></circle><circle cx="181" cy="157" r="1.50" fill="#0e4429"><title>Sun 06:00 KST · 5 commits</title></circle><circle cx="203" cy="157" r="1.50" fill="#0e4429"><title>Sun 07:00 KST · 5 commits</title></circle><circle cx="225" cy="157" r="2.45" fill="#0e4429"><title>Sun 08:00 KST · 17 commits</title></circle><circle cx="247" cy="157" r="4.52" fill="#006d32"><title>Sun 09:00 KST · 58 commits</title></circle><circle cx="269" cy="157" r="3.85" fill="#006d32"><title>Sun 10:00 KST · 42 commits</title></circle><circle cx="291" cy="157" r="2.85" fill="#0e4429"><title>Sun 11:00 KST · 23 commits</title></circle><circle cx="313" cy="157" r="6.20" fill="#26a641"><title>Sun 12:00 KST · 109 commits</title></circle><circle cx="335" cy="157" r="4.97" fill="#006d32"><title>Sun 13:00 KST · 70 commits</title></circle><circle cx="357" cy="157" r="3.56" fill="#006d32"><title>Sun 14:00 KST · 36 commits</title></circle><circle cx="379" cy="157" r="4.56" fill="#006d32"><title>Sun 15:00 KST · 59 commits</title></circle><circle cx="401" cy="157" r="4.78" fill="#006d32"><title>Sun 16:00 KST · 65 commits</title></circle><circle cx="423" cy="157" r="5.54" fill="#26a641"><title>Sun 17:00 KST · 87 commits</title></circle><circle cx="445" cy="157" r="7.90" fill="#39d353"><title>Sun 18:00 KST · 177 commits</title></circle><circle cx="467" cy="157" r="8.14" fill="#39d353"><title>Sun 19:00 KST · 188 commits</title></circle><circle cx="489" cy="157" r="6.42" fill="#26a641"><title>Sun 20:00 KST · 117 commits</title></circle><circle cx="511" cy="157" r="5.31" fill="#26a641"><title>Sun 21:00 KST · 80 commits</title></circle><circle cx="533" cy="157" r="4.07" fill="#006d32"><title>Sun 22:00 KST · 47 commits</title></circle><circle cx="555" cy="157" r="6.45" fill="#26a641"><title>Sun 23:00 KST · 118 commits</title></circle>
    <text x="49" y="180" text-anchor="middle" fill="#8b949e" font-size="10" font-family="Segoe UI,Helvetica,Arial,sans-serif">00</text><text x="137" y="180" text-anchor="middle" fill="#8b949e" font-size="10" font-family="Segoe UI,Helvetica,Arial,sans-serif">04</text><text x="225" y="180" text-anchor="middle" fill="#8b949e" font-size="10" font-family="Segoe UI,Helvetica,Arial,sans-serif">08</text><text x="313" y="180" text-anchor="middle" fill="#8b949e" font-size="10" font-family="Segoe UI,Helvetica,Arial,sans-serif">12</text><text x="401" y="180" text-anchor="middle" fill="#8b949e" font-size="10" font-family="Segoe UI,Helvetica,Arial,sans-serif">16</text><text x="489" y="180" text-anchor="middle" fill="#8b949e" font-size="10" font-family="Segoe UI,Helvetica,Arial,sans-serif">20</text>
    <text x="578" y="180" text-anchor="end" fill="#8b949e" font-size="9" font-family="Segoe UI,Helvetica,Arial,sans-serif">KST</text>
  </svg>