<svg xmlns="http://www.w3.org/2000/svg" width="580" height="194" viewBox="0 0 580 194">
    <style>text { dominant-baseline: central; }</style>
    <rect width="100%" height="100%" rx="6" fill="#0d1117"/>
    <text x="30" y="25" text-anchor="end" fill="#8b949e" font-size="10" font-family="Segoe UI,Helvetica,Arial,sans-serif">Mon</text><text x="30" y="47" text-anchor="end" fill="#8b949e" font-size="10" font-family="Segoe UI,Helvetica,Arial,sans-serif">Tue</text><text x="30" y="69" text-anchor="end" fill="#8b949e" font-size="10" font-family="Segoe UI,Helvetica,Arial,sans-serif">Wed</text><text x="30" y="91" text-anchor="end" fill="#8b949e" font-size="10" font-family="Segoe UI,Helvetica,Arial,sans-serif">Thu</text><text x="30" y="113" text-anchor="end" fill="#8b949e" font-size="10" font-family="Segoe UI,Helvetica,Arial,sans-serif">Fri</text><text x="30" y="135" text-anchor="end" fill="#8b949e" font-size="10" font-family="Segoe UI,Helvetica,Arial,sans-serif">Sat</text><text x="30" y="157" text-anchor="end" fill="#8b949e" font-size="10" font-family="Segoe UI,Helvetica,Arial,sans-serif">Sun</text>
    <circle cx="49" cy="25" r="4.82" fill="#006d32"><title>Mon 00:00 KST · 79 commits</title></circle><circle cx="71" cy="25" r="5.20" fill="#26a641"><title>Mon 01:00 KST · 92 commits</title></circle><circle cx="93" cy="25" r="3.98" fill="#006d32"><title>Mon 02:00 KST · 54 commits</title></circle><circle cx="115" cy="25" r="3.67" fill="#006d32"><title>Mon 03:00 KST · 46 commits</title></circle><circle cx="137" cy="25" r="3.34" fill="#006d32"><title>Mon 04:00 KST · 38 commits</title></circle><circle cx="159" cy="25" r="2.60" fill="#0e4429"><title>Mon 05:00 KST · 23 commits</title></circle><circle cx="181" cy="25" r="2.10" fill="#0e4429"><title>Mon 06:00 KST · 15 commits</title></circle><circle cx="203" cy="25" r="2.03" fill="#0e4429"><title>Mon 07:00 KST · 14 commits</title></circle><circle cx="225" cy="25" r="2.92" fill="#006d32"><title>Mon 08:00 KST · 29 commits</title></circle><circle cx="247" cy="25" r="3.91" fill="#006d32"><title>Mon 09:00 KST · 52 commits</title></circle><circle cx="269" cy="25" r="4.23" fill="#006d32"><title>Mon 10:00 KST · 61 commits</title></circle><circle cx="291" cy="25" r="5.81" fill="#26a641"><title>Mon 11:00 KST · 115 commits</title></circle><circle cx="313" cy="25" r="6.15" fill="#26a641"><title>Mon 12:00 KST · 129 commits</title></circle><circle cx="335" cy="25" r="5.88" fill="#26a641"><title>Mon 13:00 KST · 118 commits</title></circle><circle cx="357" cy="25" r="4.63" fill="#006d32"><title>Mon 14:00 KST · 73 commits</title></circle><circle cx="379" cy="25" r="5.52" fill="#26a641"><title>Mon 15:00 KST · 104 commits</title></circle><circle cx="401" cy="25" r="5.08" fill="#006d32"><title>Mon 16:00 KST · 88 commits</title></circle><circle cx="423" cy="25" r="5.88" fill="#26a641"><title>Mon 17:00 KST · 118 commits</title></circle><circle cx="445" cy="25" r="5.55" fill="#26a641"><title>Mon 18:00 KST · 105 commits</title></circle><circle cx="467" cy="25" r="5.42" fill="#26a641"><title>Mon 19:00 KST · 100 commits</title></circle><circle cx="489" cy="25" r="5.47" fill="#26a641"><title>Mon 20:00 KST · 102 commits</title></circle><circle cx="511" cy="25" r="5.02" fill="#006d32"><title>Mon 21:00 KST · 86 commits</title></circle><circle cx="533" cy="25" r="4.72" fill="#006d32"><title>Mon 22:00 KST · 76 commits</title></circle><circle cx="555" cy="25" r="6.55" fill="#26a641"><title>Mon 23:00 KST · 146 commits</title></circle><circle cx="49" cy="47" r="6.29" fill="#26a641"><title>Tue 00:00 KST · 135 commits</title></circle><circle cx="71" cy="47" r="4.33" fill="#006d32"><title>Tue 01:00 KST · 64 commits</title></circle><circle cx="93" cy="47" r="5.36" fill="#26a641"><title>Tue 02:00 KST · 98 commits</title></circle><circle cx="115" cy="47" r="6.03" fill="#26a641"><title>Tue 03:00 KST · 124 commits</title></circle><circle cx="137" cy="47" r="4.50" fill="#006d32"><title>Tue 04:00 KST · 69 commits</title></circle><circle cx="159" cy="47" r="3.59" fill="#006d32"><title>Tue 05:00 KST · 44 commits</title></circle><circle cx="181" cy="47" r="2.03" fill="#0e4429"><title>Tue 06:00 KST · 14 commits</title></circle><circle cx="203" cy="47" r="2.23" fill="#0e4429"><title>Tue 07:00 KST · 17 commits</title></circle><circle cx="225" cy="47" r="2.03" fill="#0e4429"><title>Tue 08:00 KST · 14 commits</title></circle><circle cx="247" cy="47" r="3.16" fill="#006d32"><title>Tue 09:00 KST · 34 commits</title></circle><circle cx="269" cy="47" r="3.79" fill="#006d32"><title>Tue 10:00 KST · 49 commits</title></circle><circle cx="291" cy="47" r="5.08" fill="#006d32"><title>Tue 11:00 KST · 88 commits</title></circle><circle cx="313" cy="47" r="5.28" fill="#26a641"><title>Tue 12:00 KST · 95 commits</title></circle><circle cx="335" cy="47" r="4.72" fill="#006d32"><title>Tue 13:00 KST · 76 commits</title></circle><circle cx="357" cy="47" r="5.17" fill="#006d32"><title>Tue 14:00 KST · 91 commits</title></circle><circle cx="379" cy="47" r="6.11" fill="#26a641"><title>Tue 15:00 KST · 127 commits</title></circle><circle cx="401" cy="47" r="8.41" fill="#39d353"><title>Tue 16:00 KST · 241 commits</title></circle><circle cx="423" cy="47" r="6.57" fill="#26a641"><title>Tue 17:00 KST · 147 commits</title></circle><circle cx="445" cy="47" r="6.48" fill="#26a641"><title>Tue 18:00 KST · 143 commits</title></circle><circle cx="467" cy="47" r="5.31" fill="#26a641"><title>Tue 19:00 KST · 96 commits</title></circle><circle cx="489" cy="47" r="5.28" fill="#26a641"><title>Tue 20:00 KST · 95 commits</title></circle><circle cx="511" cy="47" r="5.20" fill="#26a641"><title>Tue 21:00 KST · 92 commits</title></circle><circle cx="533" cy="47" r="4.23" fill="#006d32"><title>Tue 22:00 KST · 61 commits</title></circle><circle cx="555" cy="47" r="5.02" fill="#006d32"><title>Tue 23:00 KST · 86 commits</title></circle><circle cx="49" cy="69" r="3.71" fill="#006d32"><title>Wed 00:00 KST · 47 commits</title></circle><circle cx="71" cy="69" r="4.20" fill="#006d32"><title>Wed 01:00 KST · 60 commits</title></circle><circle cx="93" cy="69" r="4.47" fill="#006d32"><title>Wed 02:00 KST · 68 commits</title></circle><circle cx="115" cy="69" r="3.51" fill="#006d32"><title>Wed 03:00 KST · 42 commits</title></circle><circle cx="137" cy="69" r="3.51" fill="#006d32"><title>Wed 04:00 KST · 42 commits</title></circle><circle cx="159" cy="69" r="2.92" fill="#006d32"><title>Wed 05:00 KST · 29 commits</title></circle><circle cx="181" cy="69" r="2.92" fill="#006d32"><title>Wed 06:00 KST · 29 commits</title></circle><circle cx="203" cy="69" r="1.63" fill="#0e4429"><title>Wed 07:00 KST · 9 commits</title></circle><circle cx="225" cy="69" r="2.23" fill="#0e4429"><title>Wed 08:00 KST · 17 commits</title></circle><circle cx="247" cy="69" r="3.67" fill="#006d32"><title>Wed 09:00 KST · 46 commits</title></circle><circle cx="269" cy="69" r="3.30" fill="#006d32"><title>Wed 10:00 KST · 37 commits</title></circle><circle cx="291" cy="69" r="3.91" fill="#006d32"><title>Wed 11:00 KST · 52 commits</title></circle><circle cx="313" cy="69" r="4.82" fill="#006d32"><title>Wed 12:00 KST · 79 commits</title></circle><circle cx="335" cy="69" r="4.09" fill="#006d32"><title>Wed 13:00 KST · 57 commits</title></circle><circle cx="357" cy="69" r="5.05" fill="#006d32"><title>Wed 14:00 KST · 87 commits</title></circle><circle cx="379" cy="69" r="5.14" fill="#006d32"><title>Wed 15:00 KST · 90 commits</title></circle><circle cx="401" cy="69" r="5.28" fill="#26a641"><title>Wed 16:00 KST · 95 commits</title></circle><circle cx="423" cy="69" r="5.36" fill="#26a641"><title>Wed 17:00 KST · 98 commits</title></circle><circle cx="445" cy="69" r="5.55" fill="#26a641"><title>Wed 18:00 KST · 105 commits</title></circle><circle cx="467" cy="69" r="6.06" fill="#26a641"><title>Wed 19:00 KST · 125 commits</title></circle><circle cx="489" cy="69" r="7.13" fill="#26a641"><title>Wed 20:00 KST · 173 commits</title></circle><circle cx="511" cy="69" r="5.31" fill="#26a641"><title>Wed 21:00 KST · 96 commits</title></circle><circle cx="533" cy="69" r="4.50" fill="#006d32"><title>Wed 22:00 KST · 69 commits</title></circle><circle cx="555" cy="69" r="6.03" fill="#26a641"><title>Wed 23:00 KST · 124 commits</title></circle><circle cx="49" cy="91" r="5.05" fill="#006d32"><title>Thu 00:00 KST · 87 commits</title></circle><circle cx="71" cy="91" r="3.94" fill="#006d32"><title>Thu 01:00 KST · 53 commits</title></circle><circle cx="93" cy="91" r="2.54" fill="#0e4429"><title>Thu 02:00 KST · 22 commits</title></circle><circle cx="115" cy="91" r="3.55" fill="#006d32"><title>Thu 03:00 KST · 43 commits</title></circle><circle cx="137" cy="91" r="3.02" fill="#006d32"><title>Thu 04:00 KST · 31 commits</title></circle><circle cx="159" cy="91" r="2.87" fill="#006d32"><title>Thu 05:00 KST · 28 commits</title></circle><circle cx="181" cy="91" r="3.02" fill="#006d32"><title>Thu 06:00 KST · 31 commits</title></circle><circle cx="203" cy="91" r="2.30" fill="#0e4429"><title>Thu 07:00 KST · 18 commits</title></circle><circle cx="225" cy="91" r="4.43" fill="#006d32"><title>Thu 08:00 KST · 67 commits</title></circle><circle cx="247" cy="91" r="5.11" fill="#006d32"><title>Thu 09:00 KST · 89 commits</title></circle><circle cx="269" cy="91" r="4.75" fill="#006d32"><title>Thu 10:00 KST · 77 commits</title></circle><circle cx="291" cy="91" r="4.37" fill="#006d32"><title>Thu 11:00 KST · 65 commits</title></circle><circle cx="313" cy="91" r="5.44" fill="#26a641"><title>Thu 12:00 KST · 101 commits</title></circle><circle cx="335" cy="91" r="5.52" fill="#26a641"><title>Thu 13:00 KST · 104 commits</title></circle><circle cx="357" cy="91" r="4.60" fill="#006d32"><title>Thu 14:00 KST · 72 commits</title></circle><circle cx="379" cy="91" r="5.05" fill="#006d32"><title>Thu 15:00 KST · 87 commits</title></circle><circle cx="401" cy="91" r="4.63" fill="#006d32"><title>Thu 16:00 KST · 73 commits</title></circle><circle cx="423" cy="91" r="4.33" fill="#006d32"><title>Thu 17:00 KST · 64 commits</title></circle><circle cx="445" cy="91" r="3.25" fill="#006d32"><title>Thu 18:00 KST · 36 commits</title></circle><circle cx="467" cy="91" r="5.05" fill="#006d32"><title>Thu 19:00 KST · 87 commits</title></circle><circle cx="489" cy="91" r="4.23" fill="#006d32"><title>Thu 20:00 KST · 61 commits</title></circle><circle cx="511" cy="91" r="6.77" fill="#26a641"><title>Thu 21:00 KST · 156 commits</title></circle><circle cx="533" cy="91" r="6.50" fill="#26a641"><title>Thu 22:00 KST · 144 commits</title></circle><circle cx="555" cy="91" r="8.05" fill="#39d353"><title>Thu 23:00 KST · 221 commits</title></circle><circle cx="49" cy="113" r="9.00" fill="#39d353"><title>Fri 00:00 KST · 276 commits</title></circle><circle cx="71" cy="113" r="5.11" fill="#006d32"><title>Fri 01:00 KST · 89 commits</title></circle><circle cx="93" cy="113" r="2.71" fill="#0e4429"><title>Fri 02:00 KST · 25 commits</title></circle><circle cx="115" cy="113" r="2.10" fill="#0e4429"><title>Fri 03:00 KST · 15 commits</title></circle><circle cx="137" cy="113" r="2.30" fill="#0e4429"><title>Fri 04:00 KST · 18 commits</title></circle><circle cx="159" cy="113" r="2.17" fill="#0e4429"><title>Fri 05:00 KST · 16 commits</title></circle><circle cx="181" cy="113" r="1.50" fill="#0e4429"><title>Fri 06:00 KST · 6 commits</title></circle><circle cx="203" cy="113" r="1.50" fill="#0e4429"><title>Fri 07:00 KST · 1 commit</title></circle><circle cx="225" cy="113" r="2.23" fill="#0e4429"><title>Fri 08:00 KST · 17 commits</title></circle><circle cx="247" cy="113" r="2.76" fill="#0e4429"><title>Fri 09:00 KST · 26 commits</title></circle><circle cx="269" cy="113" r="5.22" fill="#26a641"><title>Fri 10:00 KST · 93 commits</title></circle><circle cx="291" cy="113" r="6.43" fill="#26a641"><title>Fri 11:00 KST · 141 commits</title></circle><circle cx="313" cy="113" r="6.29" fill="#26a641"><title>Fri 12:00 KST · 135 commits</title></circle><circle cx="335" cy="113" r="7.15" fill="#26a641"><title>Fri 13:00 KST · 174 commits</title></circle><circle cx="357" cy="113" r="7.53" fill="#39d353"><title>Fri 14:00 KST · 193 commits</title></circle><circle cx="379" cy="113" r="7.19" fill="#26a641"><title>Fri 15:00 KST · 176 commits</title></circle><circle cx="401" cy="113" r="6.13" fill="#26a641"><title>Fri 16:00 KST · 128 commits</title></circle><circle cx="423" cy="113" r="6.46" fill="#26a641"><title>Fri 17:00 KST · 142 commits</title></circle><circle cx="445" cy="113" r="6.63" fill="#26a641"><title>Fri 18:00 KST · 150 commits</title></circle><circle cx="467" cy="113" r="6.72" fill="#26a641"><title>Fri 19:00 KST · 154 commits</title></circle><circle cx="489" cy="113" r="6.32" fill="#26a641"><title>Fri 20:00 KST · 136 commits</title></circle><circle cx="511" cy="113" r="5.14" fill="#006d32"><title>Fri 21:00 KST · 90 commits</title></circle><circle cx="533" cy="113" r="4.60" fill="#006d32"><title>Fri 22:00 KST · 72 commits</title></circle><circle cx="555" cy="113" r="5.44" fill="#26a641"><title>Fri 23:00 KST · 101 commits</title></circle><circle cx="49" cy="135" r="4.94" fill="#006d32"><title>Sat 00:00 KST · 83 commits</title></circle><circle cx="71" cy="135" r="3.63" fill="#006d32"><title>Sat 01:00 KST · 45 commits</title></circle><circle cx="93" cy="135" r="4.37" fill="#006d32"><title>Sat 02:00 KST · 65 commits</title></circle><circle cx="115" cy="135" r="4.63" fill="#006d32"><title>Sat 03:00 KST · 73 commits</title></circle><circle cx="137" cy="135" r="3.34" fill="#006d32"><title>Sat 04:00 KST · 38 commits</title></circle><circle cx="159" cy="135" r="1.50" fill="#0e4429"><title>Sat 05:00 KST · 7 commits</title></circle><circle cx="181" cy="135" r="2.60" fill="#0e4429"><title>Sat 06:00 KST · 23 commits</title></circle><circle cx="203" cy="135" r="2.71" fill="#0e4429"><title>Sat 07:00 KST · 25 commits</title></circle><circle cx="225" cy="135" r="2.54" fill="#0e4429"><title>Sat 08:00 KST · 22 commits</title></circle><circle cx="247" cy="135" r="2.87" fill="#006d32"><title>Sat 09:00 KST · 28 commits</title></circle><circle cx="269" cy="135" r="2.36" fill="#0e4429"><title>Sat 10:00 KST · 19 commits</title></circle><circle cx="291" cy="135" r="2.97" fill="#006d32"><title>Sat 11:00 KST · 30 commits</title></circle><circle cx="313" cy="135" r="6.01" fill="#26a641"><title>Sat 12:00 KST · 123 commits</title></circle><circle cx="335" cy="135" r="4.82" fill="#006d32"><title>Sat 13:00 KST · 79 commits</title></circle><circle cx="357" cy="135" r="3.91" fill="#006d32"><title>Sat 14:00 KST · 52 commits</title></circle><circle cx="379" cy="135" r="4.63" fill="#006d32"><title>Sat 15:00 KST · 73 commits</title></circle><circle cx="401" cy="135" r="5.31" fill="#26a641"><title>Sat 16:00 KST · 96 commits</title></circle><circle cx="423" cy="135" r="4.75" fill="#006d32"><title>Sat 17:00 KST · 77 commits</title></circle><circle cx="445" cy="135" r="5.76" fill="#26a641"><title>Sat 18:00 KST · 113 commits</title></circle><circle cx="467" cy="135" r="5.36" fill="#26a641"><title>Sat 19:00 KST · 98 commits</title></circle><circle cx="489" cy="135" r="3.83" fill="#006d32"><title>Sat 20:00 KST · 50 commits</title></circle><circle cx="511" cy="135" r="4.72" fill="#006d32"><title>Sat 21:00 KST · 76 commits</title></circle><circle cx="533" cy="135" r="5.05" fill="#006d32"><title>Sat 22:00 KST · 87 commits</title></circle><circle cx="555" cy="135" r="4.91" fill="#006d32"><title>Sat 23:00 KST · 82 commits</title></circle><circle cx="49" cy="157" r="5.83" fill="#26a641"><title>Sun 00:00 KST · 116 commits</title></circle><circle cx="71" cy="157" r="4.43" fill="#006d32"><title>Sun 01:00 KST · 67 commits</title></circle><circle cx="93" cy="157" r="4.20" fill="#006d32"><title>Sun 02:00 KST · 60 commits</title></circle><circle cx="115" cy="157" r="5.31" fill="#26a641"><title>Sun 03:00 KST · 96 commits</title></circle><circle cx="137" cy="157" r="3.20" fill="#006d32"><title>Sun 04:00 KST · 35 commits</title></circle><circle cx="159" cy="157" r="1.71" fill="#0e4429"><title>Sun 05:00 KST · 10 commits</title></circle><circle cx="181" cy="157" r="1.71" fill="#0e4429"><title>Sun 06:00 KST · 10 commits</title></circle><circle cx="203" cy="157" r="1.95" fill="#0e4429"><title>Sun 07:00 KST · 13 commits</title></circle><circle cx="225" cy="157" r="2.65" fill="#0e4429"><title>Sun 08:00 KST · 24 commits</title></circle><circle cx="247" cy="157" r="5.08" fill="#006d32"><title>Sun 09:00 KST · 88 commits</title></circle><circle cx="269" cy="157" r="4.05" fill="#006d32"><title>Sun 10:00 KST · 56 commits</title></circle><circle cx="291" cy="157" r="3.38" fill="#006d32"><title>Sun 11:00 KST · 39 commits</title></circle><circle cx="313" cy="157" r="5.98" fill="#26a641"><title>Sun 12:00 KST · 122 commits</title></circle><circle cx="335" cy="157" r="5.22" fill="#26a641"><title>Sun 13:00 KST · 93 commits</title></circle><circle cx="357" cy="157" r="3.91" fill="#006d32"><title>Sun 14:00 KST · 52 commits</title></circle><circle cx="379" cy="157" r="5.73" fill="#26a641"><title>Sun 15:00 KST · 112 commits</title></circle><circle cx="401" cy="157" r="4.85" fill="#006d32"><title>Sun 16:00 KST · 80 commits</title></circle><circle cx="423" cy="157" r="5.17" fill="#006d32"><title>Sun 17:00 KST · 91 commits</title></circle><circle cx="445" cy="157" r="7.37" fill="#39d353"><title>Sun 18:00 KST · 185 commits</title></circle><circle cx="467" cy="157" r="7.62" fill="#39d353"><title>Sun 19:00 KST · 198 commits</title></circle><circle cx="489" cy="157" r="6.36" fill="#26a641"><title>Sun 20:00 KST · 138 commits</title></circle><circle cx="511" cy="157" r="4.97" fill="#006d32"><title>Sun 21:00 KST · 84 commits</title></circle><circle cx="533" cy="157" r="4.13" fill="#006d32"><title>Sun 22:00 KST · 58 commits</title></circle><circle cx="555" cy="157" r="6.36" fill="#26a641"><title>Sun 23:00 KST · 138 commits</title></circle>
    <text x="49" y="180" text-anchor="middle" fill="#8b949e" font-size="10" font-family="Segoe UI,Helvetica,Arial,sans-serif">00</text><text x="137" y="180" text-anchor="middle" fill="#8b949e" font-size="10" font-family="Segoe UI,Helvetica,Arial,sans-serif">04</text><text x="225" y="180" text-anchor="middle" fill="#8b949e" font-size="10" font-family="Segoe UI,Helvetica,Arial,sans-serif">08</text><text x="313" y="180" text-anchor="middle" fill="#8b949e" font-size="10" font-family="Segoe UI,Helvetica,Arial,sans-serif">12</text><text x="401" y="180" text-anchor="middle" fill="#8b949e" font-size="10" font-family="Segoe UI,Helvetica,Arial,sans-serif">16</text><text x="489" y="180" text-anchor="middle" fill="#8b949e" font-size="10" font-family="Segoe UI,Helvetica,Arial,sans-serif">20</text>
    <text x="578" y="180" text-anchor="end" fill="#8b949e" font-size="9" font-family="Segoe UI,Helvetica,Arial,sans-serif">KST</text>
  </svg>